<svg width="22" height="19" viewBox="0 0 22 19" fill="none" xmlns="http://www.w3.org/2000/svg">
<path d="M7.07741 18.8732C7.94602 18.8732 8.65018 18.169 8.65018 17.3004C8.65018 16.4318 7.94602 15.7277 7.07741 15.7277C6.20879 15.7277 5.50464 16.4318 5.50464 17.3004C5.50464 18.169 6.20879 18.8732 7.07741 18.8732Z" fill="#D6D6D6"/>
<path d="M18.0868 18.8732C18.9554 18.8732 19.6596 18.169 19.6596 17.3004C19.6596 16.4318 18.9554 15.7277 18.0868 15.7277C17.2182 15.7277 16.514 16.4318 16.514 17.3004C16.514 18.169 17.2182 18.8732 18.0868 18.8732Z" fill="#D6D6D6"/>
<path d="M20.8785 2.79068C20.768 2.65555 20.6288 2.54671 20.4711 2.47207C20.3133 2.39742 20.1408 2.35885 19.9663 2.35915H5.00779L4.70651 0.64975C4.67438 0.467667 4.57913 0.302726 4.43747 0.1839C4.29581 0.0650734 4.11682 -3.88481e-05 3.93192 1.7389e-08H0.786384C0.577822 1.7389e-08 0.377802 0.0828511 0.230327 0.230327C0.0828509 0.377802 0 0.577822 0 0.786384C0 0.994946 0.0828509 1.19497 0.230327 1.34244C0.377802 1.48992 0.577822 1.57277 0.786384 1.57277H3.27234L5.51649 14.2916C5.54861 14.4736 5.64387 14.6386 5.78553 14.7574C5.92718 14.8762 6.10618 14.9413 6.29107 14.9413H18.8732C19.0818 14.9413 19.2818 14.8585 19.4293 14.711C19.5768 14.5635 19.6596 14.3635 19.6596 14.1549C19.6596 13.9464 19.5768 13.7463 19.4293 13.5989C19.2818 13.4514 19.0818 13.3685 18.8732 13.3685H6.95065L6.67345 11.7958H18.5508C18.8235 11.7954 19.0877 11.7009 19.2988 11.5281C19.5098 11.3553 19.6546 11.115 19.7088 10.8477L21.1242 3.77022C21.1584 3.59894 21.154 3.42222 21.1115 3.25282C21.069 3.08343 20.9894 2.92558 20.8785 2.79068Z" fill="#D6D6D6"/>
</svg>
