<svg width="15" height="15" viewBox="0 0 15 15" fill="none" xmlns="http://www.w3.org/2000/svg">
<path d="M2.9435 2.056C2.88523 1.99773 2.81604 1.9515 2.73991 1.91996C2.66377 1.88842 2.58216 1.87219 2.49975 1.87219C2.41734 1.87219 2.33573 1.88842 2.25959 1.91996C2.18346 1.9515 2.11427 1.99773 2.056 2.056C1.93831 2.17369 1.87219 2.33331 1.87219 2.49975C1.87219 2.66619 1.93831 2.82581 2.056 2.9435L5.57475 6.46225C5.35213 6.87639 5.26887 7.35123 5.33731 7.81641C5.40574 8.28158 5.62224 8.71232 5.95471 9.04479C6.28718 9.37726 6.71792 9.59375 7.18309 9.66219C7.64827 9.73063 8.12311 9.64737 8.53725 9.42475L12.056 12.9435C12.1141 13.0021 12.1832 13.0486 12.2594 13.0803C12.3356 13.112 12.4172 13.1284 12.4997 13.1284C12.5823 13.1284 12.6639 13.112 12.7401 13.0803C12.8163 13.0486 12.8854 13.0021 12.9435 12.9435C13.0021 12.8854 13.0486 12.8163 13.0803 12.7401C13.112 12.6639 13.1284 12.5823 13.1284 12.4997C13.1284 12.4172 13.112 12.3356 13.0803 12.2594C13.0486 12.1832 13.0021 12.1141 12.9435 12.056L2.9435 2.056ZM7.49975 8.43725C7.25111 8.43725 7.01265 8.33848 6.83684 8.16266C6.66102 7.98685 6.56225 7.74839 6.56225 7.49975C6.56225 7.49975 6.56225 7.4685 6.56225 7.456L7.53725 8.431L7.49975 8.43725Z" fill="#818181"/>
<path d="M7.63742 10.625C4.94992 10.6875 3.18742 8.3812 2.63742 7.49995C3.02896 6.87538 3.49952 6.30399 4.03742 5.79995L3.12492 4.9187C2.4195 5.58337 1.81518 6.34772 1.33117 7.18745C1.27632 7.28246 1.24744 7.39024 1.24744 7.49995C1.24744 7.60966 1.27632 7.71744 1.33117 7.81245C1.72492 8.4937 3.83117 11.875 7.51242 11.875H7.66867C8.36089 11.8544 9.04415 11.7127 9.68742 11.4562L8.69992 10.4687C8.35265 10.5601 7.99629 10.6125 7.63742 10.625Z" fill="#818181"/>
<path d="M13.6686 7.18736C13.2686 6.49361 11.0624 3.01236 7.33113 3.12486C6.63891 3.14539 5.95565 3.28712 5.31238 3.54361L6.29988 4.53111C6.64715 4.43975 7.00351 4.38735 7.36238 4.37486C10.0436 4.30611 11.8061 6.61861 12.3624 7.49986C11.9612 8.12629 11.48 8.69777 10.9311 9.19986L11.8749 10.0811C12.5892 9.41819 13.202 8.65374 13.6936 7.81236C13.7447 7.71517 13.7693 7.60623 13.7649 7.49651C13.7606 7.38679 13.7273 7.28016 13.6686 7.18736Z" fill="#818181"/>
</svg>
