<svg width="15" height="15" viewBox="0 0 15 15" fill="none" xmlns="http://www.w3.org/2000/svg">
<path d="M13.6687 7.1876C13.2687 6.49385 11.0687 3.0126 7.33117 3.1251C3.87492 3.2126 1.87492 6.2501 1.33117 7.1876C1.27632 7.28261 1.24744 7.39039 1.24744 7.5001C1.24744 7.60981 1.27632 7.71759 1.33117 7.8126C1.72492 8.49385 3.83117 11.8751 7.51242 11.8751H7.66867C11.1249 11.7876 13.1312 8.7501 13.6687 7.8126C13.7235 7.71759 13.7524 7.60981 13.7524 7.5001C13.7524 7.39039 13.7235 7.28261 13.6687 7.1876ZM7.63742 10.6251C4.94367 10.6876 3.18742 8.38135 2.63742 7.5001C3.26242 6.49385 4.89367 4.4376 7.39367 4.3751C10.0749 4.30635 11.8374 6.61885 12.3937 7.5001C11.7499 8.50635 10.1374 10.5626 7.63742 10.6251Z" fill="#818181"/>
<path d="M7.49988 5.31287C7.06723 5.31287 6.6443 5.44116 6.28457 5.68153C5.92484 5.92189 5.64446 6.26353 5.47889 6.66325C5.31333 7.06296 5.27001 7.50279 5.35441 7.92713C5.43882 8.35146 5.64716 8.74123 5.95308 9.04716C6.25901 9.35309 6.64879 9.56143 7.07312 9.64583C7.49745 9.73024 7.93729 9.68692 8.337 9.52135C8.73671 9.35579 9.07835 9.07541 9.31872 8.71568C9.55908 8.35594 9.68738 7.93301 9.68738 7.50037C9.68738 6.9202 9.45691 6.36381 9.04667 5.95357C8.63644 5.54333 8.08004 5.31287 7.49988 5.31287ZM7.49988 8.43787C7.31446 8.43787 7.1332 8.38288 6.97903 8.27987C6.82486 8.17686 6.7047 8.03044 6.63374 7.85913C6.56278 7.68783 6.54422 7.49933 6.58039 7.31747C6.61657 7.13561 6.70585 6.96857 6.83697 6.83745C6.96808 6.70634 7.13512 6.61705 7.31698 6.58088C7.49884 6.54471 7.68734 6.56327 7.85864 6.63423C8.02995 6.70519 8.17637 6.82535 8.27938 6.97952C8.3824 7.13369 8.43738 7.31495 8.43738 7.50037C8.43738 7.74901 8.33861 7.98746 8.16279 8.16328C7.98698 8.33909 7.74852 8.43787 7.49988 8.43787Z" fill="#818181"/>
</svg>
