<?xml version="1.0" encoding="utf-8"?>
<!-- Generator: Adobe Illustrator 26.2.1, SVG Export Plug-In . SVG Version: 6.00 Build 0)  -->
<svg version="1.1" id="Layer_1" xmlns="http://www.w3.org/2000/svg" xmlns:xlink="http://www.w3.org/1999/xlink" x="0px" y="0px"
	 viewBox="0 0 640 512" style="enable-background:new 0 0 640 512;" xml:space="preserve">
<style type="text/css">
	.st0{fill:#2AB9A6;}
</style>
<path class="st0" d="M112,0C85.5,0,64,21.5,64,48v48H16c-8.8,0-16,7.2-16,16s7.2,16,16,16h256c8.8,0,16,7.2,16,16s-7.2,16-16,16H48
	c-8.8,0-16,7.2-16,16s7.2,16,16,16h192c8.8,0,16,7.2,16,16s-7.2,16-16,16H16c-8.8,0-16,7.2-16,16s7.2,16,16,16h192
	c8.8,0,16,7.2,16,16s-7.2,16-16,16H64v128c0,53,42.1,96,96,96c53,0,96-43,96-96h128c0,53,42.1,96,96,96c53,0,96-43,96-96h32
	c17.7,0,32-14.3,32-32s-14.3-32-32-32V237.3c0-17-6.7-33.3-18.7-45.3L512,114.7c-12.9-12-28.3-18.7-45.3-18.7H416V48
	c0-26.5-21.5-48-48-48H112z M544,237.3V256H416v-96h50.7L544,237.3z M160,464c-26.5,0-48-21.5-48-48s21.5-48,48-48s48,21.5,48,48
	S186.5,464,160,464z M528,416c0,26.5-21.5,48-48,48s-48-21.5-48-48s21.5-48,48-48S528,389.5,528,416z"/>
</svg>
