<svg width="60" height="48" viewBox="0 0 60 48" fill="none" xmlns="http://www.w3.org/2000/svg">
<path d="M58.5 33H57V22.8656C57 21.675 56.5219 20.5312 55.6781 19.6875L46.3125 10.3219C45.4688 9.47812 44.325 9 43.1344 9H39V4.5C39 2.01562 36.9844 0 34.5 0H4.5C2.01562 0 0 2.01562 0 4.5V34.5C0 36.9844 2.01562 39 4.5 39H6C6 43.9688 10.0312 48 15 48C19.9688 48 24 43.9688 24 39H36C36 43.9688 40.0312 48 45 48C49.9688 48 54 43.9688 54 39H58.5C59.325 39 60 38.325 60 37.5V34.5C60 33.675 59.325 33 58.5 33ZM15 43.5C12.5156 43.5 10.5 41.4844 10.5 39C10.5 36.5156 12.5156 34.5 15 34.5C17.4844 34.5 19.5 36.5156 19.5 39C19.5 41.4844 17.4844 43.5 15 43.5ZM45 43.5C42.5156 43.5 40.5 41.4844 40.5 39C40.5 36.5156 42.5156 34.5 45 34.5C47.4844 34.5 49.5 36.5156 49.5 39C49.5 41.4844 47.4844 43.5 45 43.5ZM52.5 24H39V13.5H43.1344L52.5 22.8656V24Z" fill="#00C0AB"/>
</svg>
