<?xml version="1.0" encoding="UTF-8"?><svg id="a" xmlns="http://www.w3.org/2000/svg" viewBox="0 0 40 40"><path d="m27.44,21.51c.45,0,.82.37.82.82s-.37.82-.82.82-.82-.37-.82-.82.37-.82.82-.82Z" fill="#00b1a2" stroke-width="0"/><path d="m27.44,21.51c.45,0,.82.37.82.82s-.37.82-.82.82-.82-.37-.82-.82.37-.82.82-.82Z" fill="#fff" stroke-width="0"/><path d="m35.32,24.83h-7.88c-1.38,0-2.5-1.12-2.5-2.5,0-.69.28-1.31.73-1.77.45-.45,1.08-.73,1.77-.73h7.88v5Z" fill="#fff" stroke-width="0"/><path d="m28.26,22.33c0,.45-.37.82-.82.82s-.82-.37-.82-.82.37-.82.82-.82.82.37.82.82Z" fill="#00b1a2" stroke-width="0"/><path d="m28.26,22.33c0,.45-.37.82-.82.82s-.82-.37-.82-.82.37-.82.82-.82.82.37.82.82Z" fill="#fff" stroke-width="0"/><path d="m24.46,26.97c0,1.04.43,1.98,1.11,2.67s1.63,1.11,2.67,1.11h8.94v6.08c0,1.27-1.02,2.3-2.3,2.3H5.12c-1.28,0-2.3-1.03-2.3-2.3v-19.71c0-1.27,1.02-2.3,2.3-2.3h29.76c1.28,0,2.3,1.03,2.3,2.3v6.08h-8.94c-2.09,0-3.78,1.69-3.78,3.78Z" fill="#00b0a1" stroke-width="0"/><path d="m28.54,24.47c-.72,0-1.38.28-1.85.73-.47.46-.76,1.08-.76,1.77,0,1.38,1.17,2.5,2.62,2.5h8.25v-5.01h-8.25Zm0,3.33c-.47,0-.86-.37-.86-.82s.39-.82.86-.82.86.37.86.82-.39.82-.86.82Z" fill="#00b0a1" stroke-width="0"/><path d="m33.59,11.86l-1.7,1.51h-4.75l5.16-4.59,1.39,1.56c.39.45.35,1.12-.09,1.51Z" fill="#00b0a1" stroke-width="0"/><path d="m25.56,1.23c-.39-.45-1.07-.48-1.5-.09l-13.75,12.23h13.17l7.2-6.4-5.11-5.74Zm-1.05,8.07c-.21.19-.54.17-.73-.04l-1.47-1.66c-.19-.21-.17-.53.03-.72l2.18-1.94c.21-.18.54-.17.73.04l1.47,1.66c.19.21.17.54-.03.72l-2.18,1.94Z" fill="#00b0a1" stroke-width="0"/></svg>